<svg xmlns="http://www.w3.org/2000/svg" viewBox="0 0 988 195">
  <path d="M66 0V745H576V610H221V421H526V286H221V0Z" fill="#16A34A" transform="translate(24,163) scale(0.200000,-0.200000)"/>
  <path d="M224 -12Q165 -12 122.0 7.0Q79 26 56.0 61.5Q33 97 33 146Q33 192 54.0 227.5Q75 263 118.5 287.0Q162 311 227 321L394 348V238L254 213Q222 207 205.0 192.5Q188 178 188 151Q188 126 207.0 112.0Q226 98 254 98Q291 98 319.0 114.0Q347 130 362.5 157.5Q378 185 378 218V360Q378 391 353.5 412.0Q329 433 287 433Q247 433 216.5 411.0Q186 389 172 353L52 410Q68 456 103.0 489.0Q138 522 187.0 540.0Q236 558 294 558Q363 558 416.0 533.0Q469 508 498.5 463.5Q528 419 528 360V0H388V88L422 94Q398 58 369.0 34.5Q340 11 304.0 -0.5Q268 -12 224 -12Z" fill="#16A34A" transform="translate(141.4,163) scale(0.200000,-0.200000)"/>
  <path d="M55 0V546H205V0ZM55 595V745H205V595Z" fill="#16A34A" transform="translate(258.0,163) scale(0.200000,-0.200000)"/>
  <path d="M55 0V546H195V415L185 434Q203 503 244.5 527.5Q286 552 343 552H375V422H328Q273 422 239.0 388.5Q205 355 205 294V0Z" fill="#16A34A" transform="translate(310.0,163) scale(0.200000,-0.200000)"/>
  <path d="M439 -12Q355 -12 283.0 17.0Q211 46 157.5 98.5Q104 151 74.0 221.0Q44 291 44 373Q44 455 73.5 525.0Q103 595 156.5 647.0Q210 699 282.0 728.0Q354 757 439 757Q524 757 596.0 728.0Q668 699 721.5 647.0Q775 595 804.5 525.0Q834 455 834 373Q834 291 804.0 221.0Q774 151 720.5 98.5Q667 46 595.0 17.0Q523 -12 439 -12ZM439 128Q490 128 533.5 146.0Q577 164 610.0 196.5Q643 229 661.0 274.0Q679 319 679 373Q679 427 661.0 471.5Q643 516 610.0 549.0Q577 582 533.5 599.5Q490 617 439 617Q388 617 344.5 599.5Q301 582 268.0 549.0Q235 516 217.0 471.5Q199 427 199 373Q199 319 217.0 274.0Q235 229 268.0 196.5Q301 164 344.5 146.0Q388 128 439 128Z" fill="#1a1a1a" transform="translate(377.2,163) scale(0.200000,-0.200000)"/>
  <path d="M55 0V546H195V415L185 434Q203 503 244.5 527.5Q286 552 343 552H375V422H328Q273 422 239.0 388.5Q205 355 205 294V0Z" fill="#1a1a1a" transform="translate(552.8,163) scale(0.200000,-0.200000)"/>
  <path d="M312 -12Q232 -12 169.0 26.0Q106 64 69.5 129.0Q33 194 33 273Q33 353 70.0 417.5Q107 482 170.0 520.0Q233 558 311 558Q371 558 417.5 535.5Q464 513 491 472L468 442V757H618V0H478V100L492 69Q464 29 416.0 8.5Q368 -12 312 -12ZM330 123Q371 123 402.0 142.0Q433 161 450.5 195.0Q468 229 468 273Q468 317 450.5 351.0Q433 385 402.0 404.0Q371 423 330 423Q289 423 256.5 403.5Q224 384 206.0 350.5Q188 317 188 273Q188 229 206.0 195.0Q224 161 256.5 142.0Q289 123 330 123Z" fill="#1a1a1a" transform="translate(630.0,163) scale(0.200000,-0.200000)"/>
  <path d="M318 -12Q231 -12 167.0 26.5Q103 65 68.0 130.0Q33 195 33 274Q33 356 69.5 420.0Q106 484 168.0 521.0Q230 558 308 558Q373 558 423.0 537.5Q473 517 507.5 480.0Q542 443 560.0 394.5Q578 346 578 289Q578 273 576.5 257.5Q575 242 571 231H162V341H486L415 289Q425 332 414.0 365.5Q403 399 375.5 418.5Q348 438 308 438Q269 438 241.0 419.0Q213 400 199.0 363.0Q185 326 188 273Q184 227 199.0 192.0Q214 157 245.0 137.5Q276 118 320 118Q360 118 388.5 134.0Q417 150 433 178L553 121Q537 81 502.5 51.0Q468 21 421.0 4.5Q374 -12 318 -12Z" fill="#1a1a1a" transform="translate(764.6,163) scale(0.200000,-0.200000)"/>
  <path d="M55 0V546H195V415L185 434Q203 503 244.5 527.5Q286 552 343 552H375V422H328Q273 422 239.0 388.5Q205 355 205 294V0Z" fill="#1a1a1a" transform="translate(886.8000000000001,163) scale(0.200000,-0.200000)"/>
</svg>